<svg t="1720064005614" class="icon" viewBox="0 0 1024 1024" version="1.1" xmlns="http://www.w3.org/2000/svg" p-id="8555" width="128" height="128"><path d="M512 0C229.262222 0 0 229.262222 0 512s229.262222 512 512 512 512-229.262222 512-512S794.737778 0 512 0z" fill="#FFCC4D" p-id="8556"></path><path d="M809.528889 506.311111c2.56 5.688889 0.853333 12.8-4.266667 16.782222a13.994667 13.994667 0 0 1-17.351111 0.284445c-0.853333-0.568889-36.124444-25.6-105.244444-25.6-69.404444 0-104.96 25.315556-105.244445 25.6-5.404444 3.982222-12.515556 3.697778-17.351111-0.284445a14.193778 14.193778 0 0 1-4.266667-16.782222c1.706667-3.982222 42.666667-93.866667 126.862223-93.866667s125.155556 89.884444 126.862222 93.866667z m-312.888889 0c2.56 5.688889 0.853333 12.8-4.266667 16.782222a13.994667 13.994667 0 0 1-17.351111 0.284445c-0.853333-0.568889-36.124444-25.6-105.244444-25.6-69.404444 0-104.96 25.315556-105.244445 25.6-5.404444 3.982222-12.515556 3.697778-17.351111-0.284445a14.193778 14.193778 0 0 1-4.266666-16.782222c1.706667-3.982222 42.666667-93.866667 126.862222-93.866667s125.155556 89.884444 126.862222 93.866667zM369.777778 796.444444s28.444444-113.777778 142.222222-113.777777 142.222222 113.777778 142.222222 113.777777-28.444444-28.444444-142.222222-28.444444-142.222222 28.444444-142.222222 28.444444z" fill="#664500" p-id="8557"></path><path d="M170.666667 28.444444C142.222222 28.444444 28.444444 234.382222 28.444444 312.888889s63.715556 142.222222 142.222223 142.222222 142.222222-63.715556 142.222222-142.222222S199.111111 28.444444 170.666667 28.444444z" fill="#5DADEC" p-id="8558"></path></svg>