<svg t="1720064873502" class="icon" viewBox="0 0 1024 1024" version="1.1" xmlns="http://www.w3.org/2000/svg" p-id="4764" width="64" height="64"><path d="M311.04 100.693333c121.066667-60.48 269.013333-61.333333 391.466667-3.946666-11.093333 21.44-13.866667 45.546667-14.826667 69.333333l-0.32-0.106667c-0.96-16.853333-1.92-33.706667-2.773333-50.56-112.533333-49.92-243.306667-46.08-355.733334 1.813334-4.48-4.16-13.44-12.373333-17.813333-16.533334z" fill="#EEA44F" p-id="4765"></path><path d="M197.013333 135.146667c0-57.386667 81.706667-80.213333 114.026667-34.453334 4.373333 4.16 13.333333 12.373333 17.813333 16.533334-0.746667 23.36-2.773333 47.146667-17.6 66.453333-7.466667-21.76-13.866667-44.373333-26.773333-63.68l-13.546667 5.973333c3.84-5.226667 11.626667-15.573333 15.573334-20.8-36.48-12.8-60.693333 14.186667-89.493334 29.973334z" fill="#C84E12" p-id="4766"></path><path d="M702.506667 96.746667c35.2-41.066667 104.853333-23.68 117.973333 28.16l-9.92 13.866666c-11.093333-11.84-21.973333-23.68-33.28-35.306666-9.173333-12.16-31.36-13.973333-40-0.426667l-6.506667 8.426667c-5.226667 6.826667-10.133333 13.76-14.72 20.8-1.6 9.493333-4.693333 28.373333-6.293333 37.76-5.546667-0.96-16.533333-2.986667-22.08-3.946667 0.96-23.786667 3.733333-47.893333 14.826667-69.333333z" fill="#AB4311" opacity=".97" p-id="4767"></path><path d="M328.853333 117.226667c112.426667-47.893333 243.2-51.733333 355.733334-1.813334 0.853333 16.853333 1.813333 33.706667 2.773333 50.56-3.2-0.746667-9.386667-2.346667-12.586667-3.093333-4.693333-12.586667-8.853333-25.386667-13.226666-38.186667-4.693333-1.6-14.293333-4.693333-18.986667-6.293333 4.586667 32.746667 11.52 65.173333 20.8 96.96 18.453333 6.72 36.8 13.546667 55.466667 19.52-50.88 5.333333-106.773333 28.48-131.946667 75.52-19.946667 37.973333 22.826667 81.28 61.653333 67.52l-16.426666 18.56c-18.88-4.586667-37.44-10.453333-55.893334-16.426667-31.68 43.946667-56.746667 93.866667-98.56 129.706667-24.96 21.546667-51.946667 40.746667-80.106666 58.026667-50.026667 32.426667-111.786667 31.68-167.36 48.32 5.12 21.226667 8.853333 42.88 8.853333 64.853333-12.8-18.24-24.746667-37.226667-32.853333-58.026667-4.906667-32.853333-14.293333-64.96-28.906667-94.826666 29.973333-7.253333 66.88-12.373333 83.84-41.92 13.226667-23.04-0.64-51.733333-22.4-63.68-34.56-23.04-78.4-14.613333-115.093333-2.133334-3.946667 1.706667-11.733333 5.12-15.573334 6.826667-7.466667 17.813333-13.866667 36.053333-20.266666 54.293333-2.56-35.946667 4.48-71.253333 8.426666-106.666666 6.293333 1.386667 18.773333 4.266667 25.066667 5.76 59.733333-32.426667 130.026667-40.533333 196.053333-25.6 28.053333 7.68 51.306667 25.92 77.866667 37.12 29.653333 8.64 50.56-29.333333 44.48-55.04-8.746667-48.426667-58.88-71.68-100.373333-87.146667-56.746667-22.506667-118.613333-7.573333-177.493334-16.213333-2.773333-1.386667-8.426667-4.266667-11.2-5.653334 38.186667-35.946667 72-79.146667 120.32-102.08l13.546667-5.973333c12.906667 19.306667 19.306667 41.92 26.773333 63.68 14.826667-19.306667 16.853333-43.093333 17.6-66.453333z" fill="#FDED78" p-id="4768"></path><path d="M737.28 103.04c8.64-13.546667 30.826667-11.733333 40 0.426667-13.546667 9.386667-26.88 9.28-40-0.426667z" fill="#592106" opacity=".73" p-id="4769"></path><path d="M642.56 118.4c4.693333 1.6 14.293333 4.693333 18.986667 6.293333 4.373333 12.8 8.533333 25.6 13.226666 38.186667 3.2 0.746667 9.386667 2.346667 12.586667 3.093333l0.32 0.106667c5.546667 0.96 16.533333 2.986667 22.08 3.946667 1.6-9.386667 4.693333-28.266667 6.293333-37.76 47.466667 27.2 90.773333 61.653333 124.373334 105.066666l-21.12 1.6c-33.493333-1.92-66.986667-2.346667-100.48-4.053333-18.666667-5.973333-37.013333-12.8-55.466667-19.52-9.28-31.786667-16.213333-64.213333-20.8-96.96z" fill="#FFD875" p-id="4770"></path><path d="M716.053333 132.266667c4.586667-7.04 9.493333-13.973333 14.72-20.8 68.266667 38.08 126.72 93.546667 167.36 160.426666-25.066667-13.653333-51.733333-24.106667-78.826666-32.96l21.12-1.6c-33.6-43.413333-76.906667-77.866667-124.373334-105.066666zM922.133333 395.306667c7.573333-6.613333 15.146667-13.12 22.826667-19.626667 16.96 48.746667 23.466667 100.906667 19.306667 152.426667l-3.626667-12.48c-11.84-40.426667-27.306667-79.68-38.506667-120.32zM85.653333 676.693333c11.733333 6.293333 23.68 12.266667 35.84 17.6 19.84 47.36 50.24 89.066667 84.8 126.613334 5.12-17.813333 9.92-35.52 15.573334-53.12-13.76 33.92 0.426667 69.44 30.826666 87.893333 64.32 58.773333 151.68 86.08 237.333334 91.306667 161.066667 8.96 324.053333-81.706667 397.866666-225.706667-27.626667-1.92-56.96 0.106667-81.92-14.08 41.706667 9.386667 89.386667 9.28 122.666667-21.653333l5.546667-3.946667c-56.746667 149.226667-197.76 263.253333-356.373334 284.586667-76.8 9.066667-156.693333 4.586667-229.12-24.533334-119.893333-45.44-219.413333-144-263.04-264.96z" fill="#EFAA51" p-id="4771"></path><path d="M142.613333 233.493333c4.8 0.106667 14.4 0.213333 19.2 0.213334 58.88 8.64 120.746667-6.293333 177.493334 16.213333 41.493333 15.466667 91.626667 38.72 100.373333 87.146667 6.08 25.706667-14.826667 63.68-44.48 55.04-26.56-11.2-49.813333-29.44-77.866667-37.12-66.026667-14.933333-136.32-6.826667-196.053333 25.6-6.293333-1.493333-18.773333-4.373333-25.066667-5.76-8.746667-14.72-23.893333-26.453333-26.773333-44.053334 3.733333-34.453333 33.92-58.88 64.96-69.44 2.026667-6.933333 6.186667-20.8 8.213333-27.84m-36.053333 48.213334c33.173333 0.533333 71.146667 31.04 52.48 66.346666 51.946667-16.106667 108.266667-16.853333 161.386667-6.293333 32.106667 5.76 55.466667 32.746667 87.04 39.146667 13.653333-9.173333 26.666667-23.253333 22.08-41.386667-10.453333-41.493333-52.693333-61.546667-88.96-76.266667-76.266667-26.666667-163.626667-23.146667-234.026667 18.453334zM586.88 310.4c25.173333-47.04 81.066667-70.186667 131.946667-75.52 33.493333 1.706667 66.986667 2.133333 100.48 4.053333 27.093333 8.853333 53.76 19.306667 78.826666 32.96 36.053333 20.48 64.213333 61.653333 46.826667 103.786667-7.68 6.506667-15.253333 13.013333-22.826667 19.626667-0.533333-2.346667-1.706667-7.04-2.24-9.386667 27.2-22.826667 27.093333-65.173333-1.066666-87.04-83.733333-61.973333-205.44-71.36-296.106667-18.453333 32.32 5.76 61.44 31.573333 50.346667 66.666666 57.813333-16.426667 119.466667-15.36 177.493333-1.066666-1.493333 3.52-4.586667 10.56-6.08 14.08-63.786667-16.96-138.88-21.12-195.946667 17.813333-38.826667 13.76-81.6-29.546667-61.653333-67.52z" fill="#1F1F1F" p-id="4772"></path><path d="M622.72 280.426667c90.666667-52.906667 212.373333-43.52 296.106667 18.453333 28.16 21.866667 28.266667 64.213333 1.066666 87.04-13.44-26.24-6.506667-79.253333-45.013333-81.493333-12.693333 10.666667-17.173333 27.306667-24.32 41.6-58.026667-14.293333-119.68-15.36-177.493333 1.066666 11.093333-35.093333-18.026667-60.906667-50.346667-66.666666zM106.56 281.706667c70.4-41.6 157.76-45.12 234.026667-18.453334 36.266667 14.72 78.506667 34.773333 88.96 76.266667 4.586667 18.133333-8.426667 32.213333-22.08 41.386667-31.573333-6.4-54.933333-33.386667-87.04-39.146667-53.12-10.56-109.44-9.813333-161.386667 6.293333 18.666667-35.306667-19.306667-65.813333-52.48-66.346666z" fill="#FFFFFF" p-id="4773"></path><path d="M850.56 346.026667c7.146667-14.293333 11.626667-30.933333 24.32-41.6 38.506667 2.24 31.573333 55.253333 45.013333 81.493333 0.533333 2.346667 1.706667 7.04 2.24 9.386667 11.2 40.64 26.666667 79.893333 38.506667 120.32 2.773333 38.613333 3.946667 77.333333 1.173333 115.84-7.68 19.733333-18.453333 38.72-33.173333 54.08-33.28 30.933333-80.96 31.04-122.666667 21.653333l-12.906666-9.706667c-7.786667-7.68-15.146667-15.786667-22.293334-24-29.653333-50.773333-18.24-112 5.12-162.666666 16.213333-36.053333 32.746667-71.893333 49.066667-107.946667 6.613333-14.186667 13.226667-28.373333 19.52-42.773333 1.493333-3.52 4.586667-10.56 6.08-14.08m29.866667-23.36c-10.56 24.32-20.586667 49.066667-30.293334 73.813333l-2.56-1.386667c-10.773333 25.813333-21.546667 51.52-32.426666 77.226667l-2.346667-2.346667c-13.013333 30.72-25.386667 61.76-36.373333 93.226667-13.12 37.12-4.053333 81.386667 22.08 110.72 24 27.626667 65.173333 13.866667 97.173333 18.026667l-4.693333-3.306667c19.306667-13.12 36.48-28.906667 51.2-46.933333l-2.346667-6.826667c23.253333-56 2.666667-114.133333-13.013333-168.96l-3.2-0.426667c-15.893333-47.253333-26.24-96.106667-43.2-142.826666z" fill="#24AEEB" p-id="4774"></path><path d="M880.426667 322.666667c16.96 46.72 27.306667 95.573333 43.2 142.826666l-14.4-2.133333c-17.173333-24.213333-27.733333-57.493333-59.093334-66.88 9.706667-24.746667 19.733333-49.493333 30.293334-73.813333z" fill="#D9EAF0" p-id="4775"></path><path d="M648.533333 377.92c57.066667-38.933333 132.16-34.773333 195.946667-17.813333-6.293333 14.4-12.906667 28.586667-19.52 42.773333-37.653333 9.6-76.16 29.973333-79.36 73.386667-23.36 8.64-40 26.666667-49.6 49.493333-40.32 83.52-114.453333 145.173333-195.093333 187.946667-46.826667 22.72-99.733333 26.24-149.653334 38.613333 38.186667 15.146667 77.12 30.933333 118.72 33.173333 37.866667 1.92 76.48 2.133333 112.96 13.866667-97.706667 21.12-204.693333 1.173333-285.546666-58.773333-8.64-22.186667-10.666667-49.386667-30.613334-64.96-3.84 5.76-11.626667 17.066667-15.466666 22.826666-4.16-5.866667-8.213333-11.733333-12.266667-17.493333 0-21.973333-3.733333-43.626667-8.853333-64.853333 55.573333-16.64 117.333333-15.893333 167.36-48.32 28.16-17.28 55.146667-36.48 80.106666-58.026667 41.813333-35.84 66.88-85.76 98.56-129.706667 18.453333 5.973333 37.013333 11.84 55.893334 16.426667l16.426666-18.56z" fill="#FEDF76" p-id="4776"></path><path d="M80.213333 370.24c3.946667 1.173333 11.946667 3.413333 16 4.586667-3.946667 35.413333-10.986667 70.72-8.426666 106.666666-9.813333 31.786667-22.4 63.146667-24.213334 96.746667-1.28 1.386667-3.946667 4.053333-5.333333 5.44-0.746667-2.133333-2.24-6.293333-2.88-8.32 1.066667-68.16-5.013333-143.466667 24.853333-205.12z" fill="#EFA54F" p-id="4777"></path><path d="M847.573333 395.093333l2.56 1.386667c31.36 9.386667 41.92 42.666667 59.093334 66.88l14.4 2.133333 3.2 0.426667c15.68 54.826667 36.266667 112.96 13.013333 168.96-13.226667-72.533333-78.186667-112.426667-124.693333-162.56 10.88-25.706667 21.653333-51.413333 32.426666-77.226667z" fill="#ABD9EC" p-id="4778"></path><path d="M123.626667 420.373333c36.693333-12.48 80.533333-20.906667 115.093333 2.133334 21.76 11.946667 35.626667 40.64 22.4 63.68-16.96 29.546667-53.866667 34.666667-83.84 41.92-1.706667-3.626667-5.12-10.986667-6.826667-14.613334 25.493333-13.973333 70.613333-22.613333 60.906667-61.44-23.893333-29.44-65.813333-17.706667-98.773333-23.146666l-8.96-8.533334z" fill="#F3AB64" p-id="4779"></path><path d="M745.6 476.266667c3.2-43.413333 41.706667-63.786667 79.36-73.386667-16.32 36.053333-32.853333 71.893333-49.066667 107.946667-10.026667-11.52-20.16-23.04-30.293333-34.56z" fill="#F89958" p-id="4780"></path><path d="M108.053333 427.2c3.84-1.706667 11.626667-5.12 15.573334-6.826667l8.96 8.533334c13.76 27.626667 25.066667 56.533333 37.866666 84.586666 1.706667 3.626667 5.12 10.986667 6.826667 14.613334 14.613333 29.866667 24 61.973333 28.906667 94.826666-2.026667 8.106667-6.293333 24.32-8.32 32.426667-14.4 29.226667-45.12 40.853333-76.373334 38.933333-12.16-5.333333-24.106667-11.306667-35.84-17.6-23.253333-21.333333-30.826667-53.973333-30.72-84.48l3.306667-8.533333c1.386667-1.386667 4.053333-4.053333 5.333333-5.44 1.813333-33.6 14.4-64.96 24.213334-96.746667 6.4-18.24 12.8-36.48 20.266666-54.293333M81.066667 565.44c-14.08 31.466667-13.226667 73.28 17.493333 94.613333 31.04 23.146667 54.293333-24 78.613333-37.44 3.946667-34.666667-7.36-67.52-20.586666-98.88l-2.56 2.773334c-10.56-26.56-21.013333-53.013333-31.893334-79.36-16 38.506667-29.546667 78.186667-41.066666 118.293333z" fill="#2BB0E3" p-id="4781"></path><path d="M132.586667 428.906667c32.96 5.44 74.88-6.293333 98.773333 23.146666 9.706667 38.826667-35.413333 47.466667-60.906667 61.44-12.8-28.053333-24.106667-56.96-37.866666-84.586666z" fill="#EC973B" p-id="4782"></path><path d="M81.066667 565.44c11.52-40.106667 25.066667-79.786667 41.066666-118.293333 10.88 26.346667 21.333333 52.8 31.893334 79.36-23.466667 25.066667-47.146667 50.026667-71.68 74.24l-1.28-35.306667z" fill="#B6DDED" p-id="4783"></path><path d="M812.8 469.973333l2.346667 2.346667c46.506667 50.133333 111.466667 90.026667 124.693333 162.56l2.346667 6.826667a240.682667 240.682667 0 0 1-51.2 46.933333c-43.52-35.2-101.653333-66.666667-114.56-125.44 10.986667-31.466667 23.36-62.506667 36.373333-93.226667z" fill="#6EC4E8" p-id="4784"></path><path d="M696 525.76c9.6-22.826667 26.24-40.853333 49.6-49.493333 10.133333 11.52 20.266667 23.04 30.293333 34.56-23.36 50.666667-34.773333 111.893333-5.12 162.666666l3.946667 9.6c-46.613333 61.013333-117.12 100.8-191.786667 116.266667-36.48-11.733333-75.093333-11.946667-112.96-13.866667-41.6-2.24-80.533333-18.026667-118.72-33.173333 49.92-12.373333 102.826667-15.893333 149.653334-38.613333 80.64-42.773333 154.773333-104.426667 195.093333-187.946667z" fill="#FFD374" p-id="4785"></path><path d="M154.026667 526.506667l2.56-2.773334c13.226667 31.36 24.533333 64.213333 20.586666 98.88-24.32 13.44-47.573333 60.586667-78.613333 37.44-30.72-21.333333-31.573333-63.146667-17.493333-94.613333l1.28 35.306667c24.533333-24.213333 48.213333-49.173333 71.68-74.24z" fill="#74C5E8" p-id="4786"></path><path d="M960.64 515.626667l3.626667 12.48c10.24 33.813333 8.426667 69.973333-2.453334 103.36 2.773333-38.506667 1.6-77.226667-1.173333-115.84z" fill="#134F68" opacity=".66" p-id="4787"></path><path d="M798.506667 673.92c-26.133333-29.333333-35.2-73.6-22.08-110.72 12.906667 58.773333 71.04 90.24 114.56 125.44l4.693333 3.306667c-32-4.16-73.173333 9.6-97.173333-18.026667z" fill="#3FB3E4" p-id="4788"></path><path d="M206.186667 622.933333c8.106667 20.8 20.053333 39.786667 32.853333 58.026667 4.053333 5.76 8.106667 11.626667 12.266667 17.493333-4.266667 8.32-8.106667 16.853333-11.946667 25.493334-14.08-22.72-27.946667-45.653333-41.493333-68.586667 2.026667-8.106667 6.293333-24.32 8.32-32.426667zM770.773333 673.493333c7.146667 8.213333 14.506667 16.32 22.293334 24-104.213333 151.253333-328.426667 182.293333-481.173334 89.173334-4.586667-15.466667-9.6-30.72-14.506666-46.08 80.853333 59.946667 187.84 79.893333 285.546666 58.773333 74.666667-15.466667 145.173333-55.253333 191.786667-116.266667l-3.946667-9.6z" fill="#6A0000" p-id="4789"></path><path d="M121.493333 694.293333c31.253333 1.92 61.973333-9.706667 76.373334-38.933333 13.546667 22.933333 27.413333 45.866667 41.493333 68.586667-6.293333 14.4-12.586667 28.906667-17.493333 43.84-5.653333 17.6-10.453333 35.306667-15.573334 53.12-34.56-37.546667-64.96-79.253333-84.8-126.613334z" fill="#FFD575" p-id="4790"></path><path d="M251.306667 698.453333c3.84-5.76 11.626667-17.066667 15.466666-22.826666 19.946667 15.573333 21.973333 42.773333 30.613334 64.96 4.906667 15.36 9.92 30.613333 14.506666 46.08 7.786667 37.866667-19.626667 72.96-59.2 69.013333-30.4-18.453333-44.586667-53.973333-30.826666-87.893333 4.906667-14.933333 11.2-29.44 17.493333-43.84 3.84-8.64 7.68-17.173333 11.946667-25.493334m11.306666 11.84c-8.106667 21.44-16.32 42.986667-22.826666 65.066667l-2.88-9.493333c0.32 17.066667-6.826667 36.266667 1.706666 52.16 10.026667 15.68 30.186667 8.213333 45.44 10.133333 11.52-24.96 9.28-51.946667 0.533334-77.44-5.76-14.186667-9.6-30.186667-21.973334-40.426667z" fill="#1CA9E9" p-id="4791"></path><path d="M311.893333 786.666667c152.746667 93.12 376.96 62.08 481.173334-89.173334l12.906666 9.706667c24.96 14.186667 54.293333 12.16 81.92 14.08-73.813333 144-236.8 234.666667-397.866666 225.706667-85.653333-5.226667-173.013333-32.533333-237.333334-91.306667 39.573333 3.946667 66.986667-31.146667 59.2-69.013333z" fill="#FFCA73" p-id="4792"></path><path d="M262.613333 710.293333c12.373333 10.24 16.213333 26.24 21.973334 40.426667-13.12 14.506667-26.24 29.013333-39.466667 43.413333-1.386667-4.693333-4.053333-14.08-5.333333-18.773333 6.506667-22.08 14.72-43.626667 22.826666-65.066667z" fill="#AEDAED" p-id="4793"></path><path d="M284.586667 750.72c8.746667 25.493333 10.986667 52.48-0.533334 77.44-15.253333-1.92-35.413333 5.546667-45.44-10.133333-8.533333-15.893333-1.386667-35.093333-1.706666-52.16l2.88 9.493333c1.28 4.693333 3.946667 14.08 5.333333 18.773333 13.226667-14.4 26.346667-28.906667 39.466667-43.413333z" fill="#6BC2E7" p-id="4794"></path></svg>